<?xml version="1.0" standalone="no"?><!DOCTYPE svg PUBLIC "-//W3C//DTD SVG 1.1//EN" "http://www.w3.org/Graphics/SVG/1.1/DTD/svg11.dtd"><svg t="1554780702706" class="icon" style="" viewBox="0 0 1024 1024" version="1.1" xmlns="http://www.w3.org/2000/svg" p-id="1653" xmlns:xlink="http://www.w3.org/1999/xlink" width="200" height="200"><defs><style type="text/css"></style></defs><path d="M934.6 486.4h-26.9c-5.8-90.1-41.6-172-97.8-235.9l19.1-19.1c10-10 10-26.2 0-36.2-10-10-26.2-10-36.2 0l-19.1 19.1c-63.9-56.2-145.8-92-235.9-97.8V89.6c0-14.2-11.5-25.6-25.6-25.6-14.2 0-25.6 11.5-25.6 25.6v26.9c-90.1 5.8-172.1 41.6-235.9 97.8l-19.1-19.1c-10-10-26.2-10-36.2 0-10 10-10 26.2 0 36.2l19.1 19.1c-56.2 63.9-92 145.8-97.8 235.9H89.6C75.5 486.4 64 497.9 64 512c0 14.2 11.5 25.6 25.6 25.6h26.9c5.8 90.1 41.6 172 97.8 235.9l-19.1 19.1c-10 10-10 26.2 0 36.2 5 5 11.6 7.5 18.1 7.5 6.6 0 13.1-2.5 18.1-7.5l19.1-19.1c63.9 56.2 145.8 92 235.9 97.8v26.9c0 14.2 11.5 25.6 25.6 25.6 14.2 0 25.6-11.5 25.6-25.6v-26.9c90.1-5.8 172-41.6 235.9-97.8l19.1 19.1c5 5 11.6 7.5 18.1 7.5 6.6 0 13.1-2.5 18.1-7.5 10-10 10-26.2 0-36.2l-19.1-19.1c56.2-63.9 92.1-145.8 97.8-235.9h26.9c14.2 0 25.6-11.5 25.6-25.6 0.2-14.1-11.3-25.6-25.4-25.6zM512.1 857.7c-190.6 0-345.7-155.1-345.7-345.7s155.1-345.7 345.7-345.7S857.8 321.4 857.8 512 702.7 857.7 512.1 857.7z" fill="#b5cbc3" p-id="1654"></path><path d="M720.3 303.8c-0.3-0.3-0.7-0.4-1-0.7-53.2-52.8-126.5-85.6-207.2-85.6-80.8 0-154.1 32.8-207.3 85.6-0.3 0.3-0.6 0.3-0.9 0.6-0.3 0.3-0.4 0.6-0.6 0.9-52.9 53.4-85.7 126.6-85.7 207.4 0 80.8 32.8 154.1 85.7 207.4 0.2 0.2 0.3 0.6 0.5 0.8s0.6 0.3 0.8 0.5c53.2 52.9 126.5 85.7 207.2 85.7h0.4c80.6 0 153.8-32.7 207-85.5 0.3-0.3 0.8-0.4 1.1-0.7 0.3-0.3 0.4-0.8 0.7-1.1 52.8-53.2 85.5-126.4 85.5-207.2 0-80.8-32.7-154-85.6-207.2-0.2-0.2-0.3-0.6-0.6-0.9z m-19.2 361l-91.7-91.7c6.8-10.8 11.9-22.7 14.8-35.5H754c-5.1 47.9-24.1 91.7-52.9 127.2zM270.2 537.6H400c2.9 12.8 8 24.7 14.8 35.5l-91.7 91.7c-28.8-35.5-47.8-79.3-52.9-127.2z m52.9-178.4l91.7 91.7c-6.8 10.8-11.9 22.7-14.8 35.5H270.2c5.1-47.9 24.1-91.6 52.9-127.2z m189 216.8c-35.3 0-64-28.7-64-64s28.7-64 64-64 64 28.7 64 64-28.7 64-64 64z m61.1-161.3c-10.8-6.8-22.7-11.9-35.5-14.8V270.2c47.9 5 91.6 24.1 127.2 52.9l-91.7 91.6z m-86.7-14.8c-12.8 2.9-24.7 8-35.5 14.8L359.3 323c35.6-28.8 79.3-47.8 127.2-52.9v129.8zM451 609.3c10.8 6.8 22.7 11.9 35.5 14.8v129.7c-47.9-5-91.6-24.1-127.2-52.9l91.7-91.6z m86.7 14.9c12.8-2.9 24.7-8 35.5-14.8l91.7 91.7c-35.5 28.8-79.3 47.8-127.2 52.9V624.2z m86.5-137.8c-2.9-12.8-8-24.7-14.8-35.5l91.7-91.7c28.8 35.6 47.8 79.3 52.9 127.2H624.2z" fill="#b5cbc3" p-id="1655"></path></svg>