<?xml version="1.0" standalone="no"?><!DOCTYPE svg PUBLIC "-//W3C//DTD SVG 1.1//EN" "http://www.w3.org/Graphics/SVG/1.1/DTD/svg11.dtd"><svg t="1556178236760" class="icon" style="" viewBox="0 0 1024 1024" version="1.1" xmlns="http://www.w3.org/2000/svg" p-id="1170" xmlns:xlink="http://www.w3.org/1999/xlink" width="200" height="200"><defs><style type="text/css"></style></defs><path d="M583.2 607c-30.8 0-55.8-25.2-55.8-56.6 0-31.1 25.1-56.4 55.8-56.4 30.8 0 55.8 25.2 55.8 56.4 0.1 31.4-25 56.6-55.8 56.6z m440.8 40.4c0-145.2-129.3-264.1-293.1-274.3-7.7-0.4-15.4-0.7-23-0.7-174.7 0-316.2 123.2-316.2 275.1 0 22.9 3.3 45.1 9.4 66.3 34 119.9 158.4 208.8 306.8 208.8 50.5 0 98.1-10.2 140.4-28.6l71 48.5s18.9 13.2 17.1-12.2l-20.1-75.9c66-50.6 107.7-124.5 107.7-207z m-316.1-298c6.8 0 13.5 0.3 20.2 0.6C702 196.3 549.8 78.2 365.9 78.2 163.8 78.2 0 220.9 0 396.6c0 98 50.9 185.6 130.8 244.1l-27 102s-9.2 33.8 25.8 18.6l100.8-68.8c42 14.7 87.6 22.8 135.5 22.8 4.1 0 8.1-0.3 12.1-0.3-5.8-21.8-9-44.4-9-67.6 0.1-164.3 152.1-298 338.9-298zM852.5 607c-30.8 0-55.8-25.2-55.8-56.6 0-31.1 25.1-56.4 55.8-56.4 30.8 0 55.8 25.2 55.8 56.4 0 31.4-25.1 56.6-55.8 56.6zM194.4 353.1c-30.8 0-55.8-25.2-55.8-56.6 0-31.1 25.1-56.4 55.8-56.4 30.8 0 55.8 25.2 55.8 56.4 0 31.4-25 56.6-55.8 56.6z m330.5-0.1c-30.8 0-55.8-25.2-55.8-56.6 0-31.1 25.1-56.4 55.8-56.4 30.8 0 55.8 25.2 55.8 56.4 0 31.4-25.1 56.6-55.8 56.6z" p-id="1171"></path></svg>